<?xml version="1.0" encoding="utf-8"?>
<!-- Generator: Adobe Illustrator 19.1.0, SVG Export Plug-In . SVG Version: 6.00 Build 0)  -->
<svg version="1.1" id="Layer_1" xmlns="http://www.w3.org/2000/svg" xmlns:xlink="http://www.w3.org/1999/xlink" x="0px" y="0px"
	 viewBox="0 0 64 64" enable-background="new 0 0 64 64" xml:space="preserve">
<g id="Eye_1_">
	<path fill-rule="evenodd" clip-rule="evenodd" d="M52.4171028,27.7102966
		c-6.8110008-5.375-13.8711014-8.2157993-20.4180012-8.2157993c-6.5459003,0-13.6058998,2.8407993-20.4160004,8.2157993
		c-5.1034999,4.0284004-8.2417002,8.0009995-8.3730001,8.1690025c-0.2851999,0.3632965-0.2851999,0.875,0,1.2382965
		c0.1313,0.1679001,3.2695,4.1406021,8.3730001,8.1689034c6.8100996,5.375,13.8700991,8.2157974,20.4160004,8.2157974
		c6.5468998,0,13.6070004-2.8407974,20.4180012-8.2157974c5.1034966-4.0283012,8.2416992-8.0010033,8.3729973-8.1689034
		c0.285202-0.3632965,0.285202-0.875,0-1.2382965C60.658802,35.7112961,57.5205994,31.7386971,52.4171028,27.7102966z
		 M31.9991016,51.4944992c-13.0669003,0-24.2084999-12.0937004-26.6938-14.9961014
		c2.4829001-2.9043007,13.6112995-14.9960995,26.6938-14.9960995c13.0688992,0,24.2105007,12.0937977,26.6957989,14.9960995
		C56.2120018,39.4026985,45.0831032,51.4944992,31.9991016,51.4944992z"/>
	<path fill-rule="evenodd" clip-rule="evenodd" d="M63.7814026,26.8753967
		C63.3311996,26.3108978,52.5508995,13.0081978,35.141201,10.743597
		C19.8859024,8.7659979,1.2858024,19.3528976,0.5011024,19.8050976c-0.478,0.2754002-0.6421,0.8866997-0.3667,1.3652
		c0.2759,0.4766006,0.8871999,0.6406002,1.3642,0.3671989c0.1866-0.107399,18.8041992-10.702199,33.3847961-8.8114996
		c16.5879021,2.1572008,27.2299995,15.2636003,27.3355026,15.3955011c0.1976967,0.2470989,0.4881973,0.3759995,0.7817001,0.3759995
		c0.2186966,0,0.4384995-0.0713005,0.6225967-0.2178001C64.0542984,27.9349976,64.1250992,27.3069973,63.7814026,26.8753967z"/>
	<path fill-rule="evenodd" clip-rule="evenodd" d="M32.9986,24.4681969c-6.6332989,0-12.0296974,5.3964005-12.0296974,12.030201
		S26.3653011,48.528698,32.9986,48.528698c6.6343002,0,12.0312996-5.3964996,12.0312996-12.0303001
		S39.6329002,24.4681969,32.9986,24.4681969z M32.9986,46.4681969c-5.4974976,0-9.9701977-4.4726982-9.9701977-9.969799
		c0-5.4969997,4.4727001-9.9696999,9.9701977-9.9696999c5.4986,0,9.9717026,4.4727001,9.9717026,9.9696999
		C42.9703026,41.9954987,38.4972,46.4681969,32.9986,46.4681969z"/>
	<circle fill-rule="evenodd" clip-rule="evenodd" cx="35.5008011" cy="33.4983978" r="2.5"/>
</g>
<g>
</g>
<g>
</g>
<g>
</g>
<g>
</g>
<g>
</g>
<g>
</g>
<g>
</g>
<g>
</g>
<g>
</g>
<g>
</g>
<g>
</g>
<g>
</g>
<g>
</g>
<g>
</g>
<g>
</g>
</svg>
